<?xml version="1.0" encoding="utf-8"?>
<!-- Generator: Adobe Illustrator 22.1.0, SVG Export Plug-In . SVG Version: 6.00 Build 0)  -->
<svg version="1.1" id="Layer_1" xmlns="http://www.w3.org/2000/svg" xmlns:xlink="http://www.w3.org/1999/xlink" x="0px" y="0px"
	 viewBox="0 0 1000 520" style="enable-background:new 0 0 1000 520;" xml:space="preserve">
<style type="text/css">
	.st0{fill:#292929;}
	.st1{fill:#FFFFFF;}
</style>
<rect class="st0" width="1000" height="520"/>
<g>
	<rect x="732.4" y="94.9" class="st1" width="57.5" height="57.5"/>
	<path class="st1" d="M588.6,368.6c0,15.9-12.9,28.8-28.8,28.8c-15.9,0-28.8-12.9-28.8-28.8c0-15.9,12.9-28.8,28.8-28.8
		C575.8,339.9,588.6,352.7,588.6,368.6"/>
	<path class="st1" d="M147.2,332.5h-36.5v-20.1h100v20.1H174v64.8h-26.8V332.5z M566.2,368.9h-12.3v-81.6c0-26,21.2-47.2,47.2-47.2
		h119c19.2,0,34.9-15.7,34.9-34.9l0-81.6l12.3,0l0,81.6c0,26-21.2,47.2-47.2,47.2h-119c-19.2,0-34.9,15.7-34.9,34.9V368.9z
		 M553.9,227.1l0-103.6l12.3,0l0,103.6L553.9,227.1z M431.8,252.4l0-12.3l103.6,0l0,12.3L431.8,252.4z M785.7,252.4l0-12.3l103.6,0
		l0,12.3L785.7,252.4z M755,368.9l0-103.6l12.3,0l0,103.6L755,368.9z M366.3,397.4v-84.9h26.6v35.4l43.5-35.4h33.8l-48.9,38.8
		l51.2,46.1h-34.7l-44.9-40.1v40.1H366.3z M220.3,312.4h37.8l29.3,52.9l29.5-52.9h36.4v84.9h-26.3v-58.8l-33.5,58.8h-14.3
		l-33.5-58.8v58.8h-25.6V312.4z"/>
</g>
</svg>
